<?xml version="1.0" encoding="UTF-8" standalone="no"?>
<svg
   version="1.1"
   viewBox="-5 -10 135 135"
   id="svg2"
   sodipodi:docname="noun-burner-phone-6884200.svg"
   inkscape:export-filename="..\git\ep2etr\ep2e-tr\icons\statuses\burner.svg"
   inkscape:export-xdpi="96"
   inkscape:export-ydpi="96"
   width="135"
   height="135"
   xmlns:inkscape="http://www.inkscape.org/namespaces/inkscape"
   xmlns:sodipodi="http://sodipodi.sourceforge.net/DTD/sodipodi-0.dtd"
   xmlns="http://www.w3.org/2000/svg"
   xmlns:svg="http://www.w3.org/2000/svg">
  <defs
     id="defs2" />
  <sodipodi:namedview
     id="namedview2"
     pagecolor="#868686"
     bordercolor="#000000"
     borderopacity="0.25"
     inkscape:showpageshadow="2"
     inkscape:pageopacity="0.0"
     inkscape:pagecheckerboard="0"
     inkscape:deskcolor="#d1d1d1"
     inkscape:export-bgcolor="#ffffff00"
     showguides="false" />
  <path
     d="m 49.839476,65.938347 c 2.328897,0 4.218508,1.889719 4.218508,4.21875 0,2.329031 -1.889611,4.21875 -4.218508,4.21875 -2.328898,0 -4.218508,-1.889719 -4.218508,-4.21875 0,-2.329031 1.88961,-4.21875 4.218508,-4.21875 z m -16.874031,0 c 2.328898,0 4.218507,1.889719 4.218507,4.21875 0,2.329031 -1.889609,4.21875 -4.218507,4.21875 -2.328897,0 -4.218508,-1.889719 -4.218508,-4.21875 0,-2.329031 1.889611,-4.21875 4.218508,-4.21875 z m -16.874031,0 c 2.328897,0 4.218508,1.889719 4.218508,4.21875 0,2.329031 -1.889611,4.21875 -4.218508,4.21875 -2.328898,0 -4.218507,-1.889719 -4.218507,-4.21875 0,-2.329031 1.889609,-4.21875 4.218507,-4.21875 z m 33.748062,16.875001 c 2.328897,0 4.218508,1.889718 4.218508,4.21875 0,2.329031 -1.889611,4.218744 -4.218508,4.218744 -2.328898,0 -4.218508,-1.889713 -4.218508,-4.218744 0,-2.329032 1.88961,-4.21875 4.218508,-4.21875 z m -16.874031,0 c 2.328898,0 4.218507,1.889718 4.218507,4.21875 0,2.329031 -1.889609,4.218744 -4.218507,4.218744 -2.328897,0 -4.218508,-1.889713 -4.218508,-4.218744 0,-2.329032 1.889611,-4.21875 4.218508,-4.21875 z m -16.874031,0 c 2.328897,0 4.218508,1.889718 4.218508,4.21875 0,2.329031 -1.889611,4.218744 -4.218508,4.218744 -2.328898,0 -4.218507,-1.889713 -4.218507,-4.218744 0,-2.329032 1.889609,-4.21875 4.218507,-4.21875 z m 33.748062,16.874995 c 2.328897,0 4.218508,1.889717 4.218508,4.218747 0,2.32903 -1.889611,4.21875 -4.218508,4.21875 -2.328898,0 -4.218508,-1.88972 -4.218508,-4.21875 0,-2.32903 1.88961,-4.218747 4.218508,-4.218747 z m -16.874031,0 c 2.328898,0 4.218507,1.889717 4.218507,4.218747 0,2.32903 -1.889609,4.21875 -4.218507,4.21875 -2.328897,0 -4.218508,-1.88972 -4.218508,-4.21875 0,-2.32903 1.889611,-4.218747 4.218508,-4.218747 z m -16.874031,0 c 2.328897,0 4.218508,1.889717 4.218508,4.218747 0,2.32903 -1.889611,4.21875 -4.218508,4.21875 -2.328898,0 -4.218507,-1.88972 -4.218507,-4.21875 0,-2.32903 1.889609,-4.218747 4.218507,-4.218747 z M 49.839476,15.313345 H 16.091414 c -2.328898,0 -4.218507,1.889719 -4.218507,4.21875 v 33.750001 c 0,2.329032 1.889609,4.218751 4.218507,4.218751 h 33.748062 c 2.328897,0 4.218508,-1.889719 4.218508,-4.218751 V 19.532095 c 0,-2.329031 -1.889611,-4.21875 -4.218508,-4.21875 z M 45.620968,49.063346 H 20.309922 V 23.750845 H 45.620968 Z M 123.7407,20.004595 106.63044,-4.5724373 c -3.99325,-5.7348287 -11.881009,-7.1520467 -17.615089,-3.1530939 -1.230398,0.8569266 -2.295994,1.9226251 -3.152913,3.1530939 L 70.933139,16.861626 V 6.8750007 C 70.922148,-2.4414059 63.37498,-9.98875 54.059109,-10 H 11.874031 C 2.5581604,-9.9890312 -4.9887495,-2.4414059 -5,6.8750007 V 108.125 c 0.010991,9.31641 7.5581604,16.86375 16.874031,16.875 h 42.185078 c 9.315871,-0.0113 16.862781,-7.55859 16.87403,-16.875 V 61.866409 c 12.31495,13.985579 33.632751,15.347813 47.617111,3.032157 12.98513,-11.420298 15.22038,-30.810939 5.19074,-44.89594 z M 62.494998,108.12584 c -0.0054,4.65821 -3.779078,8.43202 -8.437014,8.4375 H 11.872907 c -4.657936,-0.006 -8.4315312,-3.77929 -8.4370162,-8.4375 V 6.8758445 c 0.00543,-4.6582034 3.7790802,-8.432016 8.4370162,-8.4375004 h 42.185077 c 4.657936,0.00548 8.431531,3.779297 8.437014,8.4375004 z M 96.243059,64.883659 c -13.979289,0 -25.311045,-11.332406 -25.316669,-25.306876 0,-5.267953 1.642405,-10.398516 4.696323,-14.688282 0.01099,-0.01097 17.15386,-24.63750057 17.15386,-24.63750057 1.329272,-1.91165633 3.96034,-2.38401573 5.871884,-1.04918911 0.411968,0.28563751 0.769008,0.64269847 1.049127,1.04918911 0,0 17.142616,24.62625057 17.153866,24.63750057 8.11289,11.387392 5.45438,27.191252 -5.92672,35.303908 -4.27898,3.04875 -9.41474,4.69111 -14.681813,4.69111 z m 0,-42.187501 c -9.321354,0 -16.874029,7.553109 -16.874029,16.875 0,9.321891 7.552675,16.875001 16.874029,16.875001 9.321371,0 16.874041,-7.55311 16.874041,-16.875001 -0.0116,-9.316406 -7.55817,-16.86375 -16.874041,-16.875 z m 0,25.312501 c -4.657936,0 -8.437013,-3.779297 -8.437013,-8.437501 0,-4.658203 3.779077,-8.4375 8.437013,-8.4375 4.657931,0 8.437021,3.779297 8.437021,8.4375 -0.005,4.658204 -3.77909,8.432016 -8.437021,8.437501 z"
     id="path1"
     style="fill:#ffffff;fill-opacity:1;stroke-width:1.40621" />
</svg>
