<?xml version="1.0" encoding="UTF-8" standalone="no"?>
<!-- Uploaded to: SVG Repo, www.svgrepo.com, Generator: SVG Repo Mixer Tools -->

<svg
   fill="#000000"
   height="800"
   width="800"
   version="1.1"
   id="Layer_1"
   viewBox="0 0 512 512"
   xml:space="preserve"
   sodipodi:docname="spotted.svg"
   inkscape:export-filename="spotted_white.svg"
   inkscape:export-xdpi="96"
   inkscape:export-ydpi="96"
   xmlns:inkscape="http://www.inkscape.org/namespaces/inkscape"
   xmlns:sodipodi="http://sodipodi.sourceforge.net/DTD/sodipodi-0.dtd"
   xmlns="http://www.w3.org/2000/svg"
   xmlns:svg="http://www.w3.org/2000/svg"><defs
   id="defs4" /><sodipodi:namedview
   id="namedview4"
   pagecolor="#ffffff"
   bordercolor="#000000"
   borderopacity="0.25"
   inkscape:showpageshadow="2"
   inkscape:pageopacity="0.0"
   inkscape:pagecheckerboard="0"
   inkscape:deskcolor="#d1d1d1" />
<path
   d="M 503.847,432.949 413.95,343.052 c -0.002,-0.002 -0.003,-0.003 -0.006,-0.006 -0.003,-0.003 -0.003,-0.003 -0.006,-0.006 l -32.135,-32.135 c -10.855,-10.856 -28.522,-10.86 -39.381,0 l -3.939,3.939 -13.571,-13.571 C 351.499,269.395 367.519,228.412 367.519,183.754 367.517,82.432 285.085,0 183.762,0 82.439,0 0.009,82.432 0.009,183.754 c 0,101.322 82.43,183.754 183.753,183.754 44.658,0 85.641,-16.02 117.519,-42.606 l 13.571,13.57 -3.94,3.94 c -10.854,10.857 -10.854,28.523 0.002,39.381 l 122.043,122.043 c 10.881,10.883 28.499,10.886 39.383,10e-4 l 31.506,-31.506 c 10.859,-10.857 10.859,-28.523 10e-4,-39.382 z M 183.762,334.091 c -82.896,0 -150.337,-67.441 -150.337,-150.337 0,-82.896 67.441,-150.337 150.337,-150.337 82.896,0 150.338,67.441 150.338,150.337 0,82.896 -67.442,150.337 -150.338,150.337 z m 154.72,28.012 23.629,-23.629 16.388,16.388 -23.629,23.629 z m 114.167,114.166 -74.15,-74.15 23.629,-23.629 74.15,74.15 z"
   id="path1"
   style="fill:#fdfdfd;fill-opacity:1" />
<g
   id="g4">
	<g
   id="g3">
		<path
   d="m 183.76,66.835 c -9.228,0 -16.709,7.481 -16.709,16.709 0,9.228 7.481,16.709 16.709,16.709 46.045,0 83.505,37.457 83.505,83.5 0,9.228 7.481,16.709 16.709,16.709 9.228,0 16.709,-7.481 16.709,-16.709 0,-64.469 -52.452,-116.918 -116.923,-116.918 z"
   id="path2"
   style="fill:#fdfdfd;fill-opacity:1" />
	</g>
</g>
</svg>
