<svg xmlns="http://www.w3.org/2000/svg" version="1.1" viewBox="-5.0 -10.0 110.0 135.0">
 <path d="m71.629 69.418-30.395-30.395-9.625-9.6289-10.332-10.332h-0.003906c-0.61328-0.58984-1.5859-0.58203-2.1914 0.019531-0.60156 0.60547-0.60938 1.5781-0.019531 2.1914l9.3086 9.3086c-9.3633 3.6367-17.32 10.176-22.707 18.656-0.26172 0.47266-0.26172 1.0508 0 1.5234 0.51563 0.92578 12.984 22.676 44.336 22.676 6.2422 0.042969 12.449-0.91797 18.383-2.8438l10.344 10.344c0.61328 0.58984 1.5859 0.58203 2.1914-0.019531 0.60156-0.60156 0.60938-1.5781 0.019531-2.1914zm-25.852-21.43c-0.30469 0.625-0.46484 1.3125-0.46484 2.0117 0.003906 2.5859 2.1016 4.6836 4.6875 4.6875 0.69922 0 1.3867-0.16016 2.0117-0.46484l2.2812 2.2812c-1.2695 0.85156-2.7617 1.3086-4.293 1.3086-4.3125-0.003906-7.8086-3.5-7.8125-7.8125 0-1.5312 0.45703-3.0234 1.3086-4.293zm4.2227 16.074c-5.4062 0.007812-10.332-3.0898-12.676-7.9609-2.3398-4.8672-1.6797-10.652 1.6992-14.867l2.2383 2.2383c-1.4219 1.8789-2.1953 4.168-2.1992 6.5273 0.007812 6.0391 4.8984 10.93 10.938 10.938 2.3594-0.003906 4.6484-0.77734 6.5273-2.1992l2.2383 2.2383c-2.4844 2-5.5781 3.0898-8.7656 3.0859zm7.7031-12.988c0.0625-0.35547 0.097656-0.71484 0.10938-1.0742-0.003906-4.3125-3.5-7.8086-7.8125-7.8125-0.35938 0.011719-0.71875 0.046875-1.0742 0.10938l-2.5898-2.5898c3.9766-1.4297 8.418-0.4375 11.406 2.5508 2.9883 2.9883 3.9805 7.4297 2.5508 11.406zm36.629-0.31641v0.003907c-4.7539 7.5273-11.574 13.531-19.645 17.301l-12.012-12.012v-0.003906c2.582-5.3711 1.4922-11.785-2.7227-16s-10.629-5.3047-16-2.7227l-8.9258-8.9258c4.8945-1.2422 9.9258-1.8594 14.973-1.8359 31.352 0 43.82 21.75 44.336 22.676 0.26172 0.47266 0.26172 1.0508 0 1.5234z"/>
<text x="0.0" y="117.5" font-size="5.0" font-weight="bold" font-family="Arbeit Regular, Helvetica, Arial-Unicode, Arial, Sans-serif" fill="#000000">Created by Iwan Setyo</text><text x="0.0" y="122.5" font-size="5.0" font-weight="bold" font-family="Arbeit Regular, Helvetica, Arial-Unicode, Arial, Sans-serif" fill="#000000">from Noun Project</text></svg>