<?xml version="1.0" encoding="UTF-8" standalone="no"?>
<svg
   version="1.1"
   viewBox="-5 -10 135 135"
   id="svg2"
   width="135"
   height="135"
   xmlns="http://www.w3.org/2000/svg"
   xmlns:svg="http://www.w3.org/2000/svg">
  <defs
     id="defs2" />
  <path
     d="M 95.254076,99.276981 49.141278,33.884585 34.539019,13.168784 18.864156,-9.0596826 h -0.006 c -0.930418,-1.2689934 -2.405997,-1.2521904 -3.324611,0.042025 -0.912638,1.3026201 -0.924502,3.3951546 -0.02963,4.7146209 L 29.626191,15.723666 c -14.20523,7.824067 -26.2764817,21.892844 -34.4491963,40.13688 -0.39706,1.016891 -0.39706,2.260712 0,3.277473 0.7822716,1.991741 19.6982593,48.785601 67.2629393,48.785601 9.470153,0.0925 18.8866,-1.97495 27.889178,-6.11822 l 15.693068,22.25428 c 0.93041,1.269 2.40599,1.25219 3.32461,-0.042 0.91264,-1.29421 0.9245,-3.39515 0.0296,-4.71461 z M 56.033544,53.172061 c -0.462249,1.344637 -0.705216,2.823738 -0.705216,4.328011 0.0059,5.563355 3.188374,10.076388 7.11149,10.084778 1.060799,0 2.103787,-0.344571 3.051985,-1.000066 l 3.46085,4.907819 c -1.925981,1.832062 -4.189825,2.815347 -6.512986,2.815347 -6.542572,-0.0083 -11.846568,-7.529968 -11.852485,-16.807964 0,-3.294253 0.693368,-6.504602 1.9853,-9.236044 z m 6.406334,34.581916 C 54.238036,87.770754 46.765016,81.106521 43.208892,70.626742 39.65914,60.155354 40.660589,47.709822 45.786779,38.64159 l 3.395765,4.815521 c -2.157191,4.042303 -3.33053,8.967116 -3.336446,14.042961 0.01183,12.992637 7.431451,23.515014 16.594236,23.532226 3.579487,-0.0083 7.052171,-1.672384 9.902683,-4.731402 l 3.395765,4.815523 c -3.769128,4.302839 -8.462635,6.647455 -13.298448,6.639065 z M 74.12639,59.811342 c 0.09481,-0.764766 0.148161,-1.537921 0.165941,-2.311056 -0.006,-9.277996 -5.309912,-16.799573 -11.852483,-16.807964 -0.545222,0.02522 -1.090429,0.100841 -1.629687,0.235323 l -3.929033,-5.571746 c 6.032971,-3.075885 12.771098,-0.941246 17.304246,5.487841 4.533604,6.429087 6.038888,15.9844 3.869866,24.539089 z m 55.5705,-0.680731 v 0.0083 C 122.48467,75.333381 112.13778,88.249858 99.893119,96.36071 L 81.669499,70.51786 v -0.0083 C 85.586697,58.953979 83.933342,45.154991 77.538843,36.086757 71.144342,27.018524 61.413396,24.674122 53.264956,30.229087 L 39.723466,11.025949 c 7.425533,-2.6724944 15.058608,-4.0003504 22.715806,-3.9497911 47.564678,0 66.480108,46.7933721 67.262928,48.7855871 0.39707,1.016889 0.39707,2.260711 0,3.277472 z"
     id="path1"
     style="fill:#ffffff;stroke-width:1.80664" />
</svg>
